<svg xmlns="http://www.w3.org/2000/svg" width="300" height="190" viewBox="0 0 300 190" role="img" aria-label="Most used languages"><rect width="300" height="190" rx="4.5" fill="#1e1e2e"/><text x="25" y="35" font-family="'Segoe UI', Ubuntu, -apple-system, BlinkMacSystemFont, sans-serif" font-size="18" font-weight="600" fill="#cba6f7">Most Used Languages</text><clipPath id="bar"><rect x="25" y="55" width="250" height="8" rx="5"/></clipPath><g clip-path="url(#bar)"><rect x="25" y="55" width="250" height="8" fill="#313244"/><rect x="25.00" y="55" width="127.00" height="8" fill="#3178c6"/><rect x="152.00" y="55" width="36.50" height="8" fill="#00ADD8"/><rect x="188.50" y="55" width="25.75" height="8" fill="#e34c26"/><rect x="214.25" y="55" width="19.75" height="8" fill="#3572A5"/><rect x="234.00" y="55" width="16.25" height="8" fill="#7355dd"/><rect x="250.25" y="55" width="11.50" height="8" fill="#f1e05a"/><rect x="261.75" y="55" width="4.50" height="8" fill="#89e051"/><rect x="266.25" y="55" width="4.25" height="8" fill="#336790"/><rect x="270.50" y="55" width="4.50" height="8" fill="#6c7086"/></g><circle cx="30" cy="86" r="5" fill="#3178c6"/><text x="40" y="90" font-family="'Segoe UI', Ubuntu, -apple-system, BlinkMacSystemFont, sans-serif" font-size="11" fill="#cdd6f4">TypeScript 50.8%</text><circle cx="160" cy="86" r="5" fill="#00ADD8"/><text x="170" y="90" font-family="'Segoe UI', Ubuntu, -apple-system, BlinkMacSystemFont, sans-serif" font-size="11" fill="#cdd6f4">Go 14.6%</text><circle cx="30" cy="106" r="5" fill="#e34c26"/><text x="40" y="110" font-family="'Segoe UI', Ubuntu, -apple-system, BlinkMacSystemFont, sans-serif" font-size="11" fill="#cdd6f4">HTML 10.3%</text><circle cx="160" cy="106" r="5" fill="#3572A5"/><text x="170" y="110" font-family="'Segoe UI', Ubuntu, -apple-system, BlinkMacSystemFont, sans-serif" font-size="11" fill="#cdd6f4">Python 7.9%</text><circle cx="30" cy="126" r="5" fill="#7355dd"/><text x="40" y="130" font-family="'Segoe UI', Ubuntu, -apple-system, BlinkMacSystemFont, sans-serif" font-size="11" fill="#cdd6f4">C# 6.5%</text><circle cx="160" cy="126" r="5" fill="#f1e05a"/><text x="170" y="130" font-family="'Segoe UI', Ubuntu, -apple-system, BlinkMacSystemFont, sans-serif" font-size="11" fill="#cdd6f4">JavaScript 4.6%</text><circle cx="30" cy="146" r="5" fill="#89e051"/><text x="40" y="150" font-family="'Segoe UI', Ubuntu, -apple-system, BlinkMacSystemFont, sans-serif" font-size="11" fill="#cdd6f4">Shell 1.8%</text><circle cx="160" cy="146" r="5" fill="#336790"/><text x="170" y="150" font-family="'Segoe UI', Ubuntu, -apple-system, BlinkMacSystemFont, sans-serif" font-size="11" fill="#cdd6f4">PLpgSQL 1.7%</text><circle cx="30" cy="166" r="5" fill="#6c7086"/><text x="40" y="170" font-family="'Segoe UI', Ubuntu, -apple-system, BlinkMacSystemFont, sans-serif" font-size="11" fill="#cdd6f4">Other 1.8%</text></svg>
